<?xml version="1.0" standalone="no"?>
<!DOCTYPE svg PUBLIC "-//W3C//DTD SVG 20010904//EN"
 "http://www.w3.org/TR/2001/REC-SVG-20010904/DTD/svg10.dtd">
<svg version="1.0" xmlns="http://www.w3.org/2000/svg"
 width="401.000000pt" height="401.000000pt" viewBox="0 0 401.000000 401.000000"
 preserveAspectRatio="xMidYMid meet">
<metadata>
Created by potrace 1.14, written by Peter Selinger 2001-2017
</metadata>
<g transform="translate(0.000000,401.000000) scale(0.100000,-0.100000)"
fill="#000000" stroke="none">
<path d="M1828 4005 c-2 -1 -43 -5 -93 -9 -49 -3 -101 -8 -115 -11 -14 -3 -41
-8 -60 -11 -311 -54 -645 -256 -857 -519 -91 -113 -215 -328 -228 -395 -2 -10
-8 -27 -13 -37 -14 -28 -60 -212 -67 -268 -3 -27 -8 -61 -11 -74 -11 -50 -5
-269 10 -366 89 -592 515 -1058 1103 -1206 291 -74 607 -52 889 59 l52 21 49
-72 c27 -40 139 -202 249 -362 110 -159 206 -300 214 -311 8 -12 59 -87 114
-165 140 -204 161 -228 224 -256 137 -60 295 11 335 152 26 93 10 157 -65 260
-24 33 -55 78 -68 100 -13 22 -28 45 -33 50 -7 9 -55 78 -167 240 -23 33 -131
190 -241 349 l-199 288 46 47 c203 202 358 511 399 791 4 25 9 59 11 75 8 44
8 285 1 320 -4 17 -9 50 -12 75 -15 113 -62 262 -122 390 -225 474 -689 797
-1203 835 -47 4 -97 8 -112 10 -15 1 -29 1 -30 0z m-715 -699 c54 -10 201 -75
271 -120 45 -29 65 -36 85 -31 29 8 32 8 156 30 167 29 403 17 588 -30 19 -5
35 -2 55 11 145 98 344 173 370 141 43 -52 52 -292 14 -364 -8 -14 -1 -30 34
-77 92 -121 123 -222 119 -388 -3 -122 -8 -163 -31 -248 -36 -130 -119 -256
-209 -317 -117 -80 -205 -110 -427 -147 -30 -5 -250 -18 -313 -19 -45 -1 -246
12 -273 17 -9 2 -38 7 -63 10 -73 10 -199 44 -249 68 -213 101 -307 233 -355
498 -13 67 -12 225 2 288 19 90 49 158 103 230 l48 63 -18 57 c-34 106 -7 346
38 338 9 -2 34 -6 55 -10z"/>
</g>
</svg>
